<svg width="41" height="40" viewBox="0 0 41 40" fill="none" xmlns="http://www.w3.org/2000/svg">
<g id="SIGLE OCTO">
<path id="Vector" d="M39.9634 1.04804C41.3525 2.43859 41.3443 4.688 39.9469 6.07037C38.5496 7.45274 36.2892 7.44456 34.9 6.05401C33.5109 4.66347 33.5191 2.41405 34.9165 1.03168C36.3138 -0.350684 38.5742 -0.342504 39.9634 1.04804Z" fill="#00D2DD"/>
<path id="Vector_2" d="M27.104 13.7105C28.4932 15.1011 28.4849 17.3505 27.0876 18.7328C25.6902 20.1152 23.4298 20.107 22.0406 18.7165C20.6515 17.3259 20.6597 15.0765 22.0571 13.7023C23.4544 12.32 25.7149 12.3282 27.0958 13.7187L27.104 13.7105Z" fill="#00D2DD"/>
<path id="Vector_3" d="M19.6534 0.802979C8.81979 0.802979 0 9.59614 0 20.4015C0 31.2069 8.81157 40 19.6534 40C30.4953 40 39.3069 31.2069 39.3069 20.4015C39.3069 9.59614 30.4871 0.802979 19.6534 0.802979ZM19.6534 31.7467C13.3735 31.7467 8.26907 26.6508 8.26907 20.3933C8.26907 14.1359 13.3735 9.03992 19.6534 9.03992C25.9333 9.03992 31.0378 14.1359 31.0378 20.3933C31.0378 26.6508 25.9333 31.7467 19.6534 31.7467Z" fill="white"/>
</g>
</svg>